<svg width="44" height="58" viewBox="0 0 44 58" fill="none" xmlns="http://www.w3.org/2000/svg">
<path d="M0 32.48C0 31.1103 1.11033 30 2.48 30H29.6131C31.991 30 33.0058 33.0226 31.1096 34.4576L3.97654 54.9907C2.34301 56.2269 0 55.0617 0 53.0132V32.48Z" fill="white"/>
<path d="M0 10C0 4.47715 4.47715 0 10 0H34C39.5228 0 44 4.47715 44 10V34C44 39.5228 39.5228 44 34 44H0V10Z" fill="white"/>
<path d="M22 11C20.5555 11 19.1251 11.2845 17.7905 11.8373C16.4559 12.3901 15.2433 13.2004 14.2218 14.2218C12.1589 16.2847 11 19.0826 11 22C11 24.9174 12.1589 27.7153 14.2218 29.7782C15.2433 30.7996 16.4559 31.6099 17.7905 32.1627C19.1251 32.7155 20.5555 33 22 33C24.9174 33 27.7153 31.8411 29.7782 29.7782C31.8411 27.7153 33 24.9174 33 22C33 20.5555 32.7155 19.1251 32.1627 17.7905C31.6099 16.4559 30.7996 15.2433 29.7782 14.2218C28.7567 13.2004 27.5441 12.3901 26.2095 11.8373C24.8749 11.2845 23.4445 11 22 11ZM16.5 19.25C16.5 18.37 17.27 17.6 18.15 17.6C19.03 17.6 19.8 18.37 19.8 19.25C19.8 20.13 19.03 20.9 18.15 20.9C17.27 20.9 16.5 20.13 16.5 19.25ZM22 27.753C20.075 27.753 18.381 26.95 17.391 25.762L18.953 24.2C19.448 24.992 20.625 25.553 22 25.553C23.375 25.553 24.552 24.992 25.047 24.2L26.609 25.762C25.619 26.95 23.925 27.753 22 27.753ZM25.85 20.9C24.97 20.9 24.2 20.13 24.2 19.25C24.2 18.37 24.97 17.6 25.85 17.6C26.73 17.6 27.5 18.37 27.5 19.25C27.5 20.13 26.73 20.9 25.85 20.9Z" fill="#FF0000"/>
</svg>
