<svg width="48" height="45" viewBox="0 0 48 45" fill="none" xmlns="http://www.w3.org/2000/svg">
<path d="M31.75 22.5H36.9167C36.9167 19.1848 35.5558 16.0054 33.1335 13.6612C30.7111 11.317 27.4257 10 24 10V15C26.0554 15 28.0267 15.7902 29.4801 17.1967C30.9335 18.6032 31.75 20.5109 31.75 22.5ZM42.0833 22.5H47.25C47.25 10 36.8392 0 24 0V5C33.9717 5 42.0833 12.825 42.0833 22.5ZM44.6667 31.25C41.4375 31.25 38.3375 30.75 35.4442 29.825C34.54 29.55 33.5325 29.75 32.8092 30.45L27.1258 35.95C19.815 32.35 13.8217 26.55 10.1017 19.475L15.785 13.975C16.5083 13.275 16.715 12.3 16.4308 11.425C15.475 8.625 14.9583 5.625 14.9583 2.5C14.9583 1.83696 14.6862 1.20107 14.2017 0.732233C13.7172 0.263392 13.0601 0 12.375 0H3.33333C2.64819 0 1.99111 0.263392 1.50664 0.732233C1.02217 1.20107 0.75 1.83696 0.75 2.5C0.75 13.7717 5.37692 24.5817 13.6129 32.552C21.8489 40.5223 33.0192 45 44.6667 45C45.3518 45 46.0089 44.7366 46.4934 44.2678C46.9778 43.7989 47.25 43.163 47.25 42.5V33.75C47.25 33.087 46.9778 32.4511 46.4934 31.9822C46.0089 31.5134 45.3518 31.25 44.6667 31.25Z" fill="white"/>
</svg>
