<svg width="48" height="48" viewBox="0 0 48 48" fill="none" xmlns="http://www.w3.org/2000/svg">
<path d="M24 1C20.9796 1 17.9888 1.59491 15.1983 2.75077C12.4078 3.90663 9.87229 5.6008 7.73654 7.73654C3.42321 12.0499 1 17.9 1 24C1 30.1 3.42321 35.9501 7.73654 40.2635C9.87229 42.3992 12.4078 44.0934 15.1983 45.2492C17.9888 46.4051 20.9796 47 24 47C30.1 47 35.9501 44.5768 40.2635 40.2635C44.5768 35.9501 47 30.1 47 24C47 20.9796 46.4051 17.9888 45.2492 15.1983C44.0934 12.4078 42.3992 9.87229 40.2635 7.73654C38.1277 5.6008 35.5922 3.90663 32.8017 2.75077C30.0112 1.59491 27.0204 1 24 1ZM33.66 33.66L21.7 26.3V12.5H25.15V24.46L35.5 30.67L33.66 33.66Z" fill="white"/>
</svg>
