<svg width="36" height="48" viewBox="0 0 36 48" fill="none" xmlns="http://www.w3.org/2000/svg">
<path d="M17.9998 22.8C16.2948 22.8 14.6597 22.1679 13.4541 21.0426C12.2485 19.9174 11.5712 18.3913 11.5712 16.8C11.5712 15.2087 12.2485 13.6826 13.4541 12.5574C14.6597 11.4321 16.2948 10.8 17.9998 10.8C19.7047 10.8 21.3399 11.4321 22.5455 12.5574C23.7511 13.6826 24.4284 15.2087 24.4284 16.8C24.4284 17.5879 24.2621 18.3681 23.939 19.0961C23.6159 19.8241 23.1424 20.4855 22.5455 21.0426C21.9485 21.5998 21.2398 22.0417 20.4599 22.3433C19.6799 22.6448 18.844 22.8 17.9998 22.8ZM17.9998 0C13.2259 0 8.64751 1.76999 5.27186 4.92061C1.8962 8.07122 -0.000218991 12.3444 -0.000218991 16.8C-0.000218991 29.4 17.9998 48 17.9998 48C17.9998 48 35.9998 29.4 35.9998 16.8C35.9998 12.3444 34.1034 8.07122 30.7277 4.92061C27.352 1.76999 22.7737 0 17.9998 0Z" fill="white"/>
</svg>
